<mxfile host="app.diagrams.net" modified="2023-08-29T08:27:05.260Z" agent="Mozilla/5.0 (Windows NT 10.0; Win64; x64; rv:109.0) Gecko/20100101 Firefox/115.0" version="21.5.1" etag="4EFU9YBfHYb4XQRqdBLu" type="github">
  <diagram name="Page-1" id="TG7B-YL6In4MXGU7E_lL">
    <mxGraphModel>
      <root>
        <mxCell id="0" />
        <mxCell id="1" parent="0" />
      </root>
    </mxGraphModel>
  </diagram>
</mxfile>
